<svg width="250" height="328" viewBox="0 0 250 328" fill="none" xmlns="http://www.w3.org/2000/svg">
<path d="M81.1534 4.18592C76.1069 -0.182671 68.9023 -1.00792 63.0011 2.09332C57.0934 5.19784 53.6909 11.5935 54.4146 18.225C61.0886 79.0709 45.2779 104.618 28.5338 131.661C17.2423 149.905 5.56757 168.761 1.43149 196.934C-10.587 278.798 56.1044 308.628 88.1615 322.962L93.2178 325.238C95.3628 326.214 97.6551 326.695 99.9409 326.695C103.006 326.695 106.062 325.828 108.721 324.112C113.361 321.132 116.161 315.987 116.161 310.472C116.161 289.232 128.556 268.882 141.678 247.347C152.891 228.946 164.478 209.916 169.475 188.436C177.272 154.896 176.172 86.3672 81.1534 4.18592ZM137.873 181.081C134.064 197.494 124.299 213.508 113.973 230.469C103.186 248.179 92.1273 266.331 86.8712 286.546C53.1276 269.815 26.6868 248.28 33.5344 201.647C36.6913 180.122 45.7003 165.578 56.1208 148.739C70.3039 125.829 85.9739 100.511 88.1549 55.6888C142.428 113.607 143.218 158.118 137.873 181.081Z" fill="#8C82FC"/>
<path d="M187.735 265.816C206.087 238.632 215.918 209.624 219.01 191.537C227.203 143.499 211.373 89.7104 175.576 43.9679C170.055 36.9173 159.863 35.663 152.806 41.1876C145.749 46.709 144.505 56.9034 150.023 63.9574C180.2 102.518 193.689 147.029 187.021 186.078C184.621 200.153 176.326 224.727 160.846 247.661C155.835 255.088 157.787 265.171 165.218 270.188C167.998 272.055 171.155 272.959 174.279 272.959C179.483 272.959 184.605 270.46 187.735 265.816Z" fill="#8C82FC"/>
<path d="M238.714 225.062C230.183 222.331 221.05 227.037 218.325 235.574C208.812 265.293 189.278 284.293 171.433 298.955C164.507 304.636 163.508 314.864 169.19 321.787C172.396 325.69 177.046 327.714 181.736 327.714C185.364 327.714 189.006 326.506 192.022 324.027C212.273 307.397 237.073 283.439 249.226 245.464C251.951 236.93 247.252 227.796 238.714 225.062Z" fill="#8C82FC"/>
</svg>
