<svg width="370" height="95" viewBox="0 0 370 95" fill="none" xmlns="http://www.w3.org/2000/svg">
<path d="M23.5275 1.14632C22.0645 -0.1202 19.9757 -0.359451 18.2649 0.539642C16.5522 1.43968 15.5657 3.29389 15.7755 5.21645C17.7104 22.8565 13.1267 30.2629 8.27234 38.1031C4.99877 43.3923 1.61412 48.859 0.41501 57.0268C-3.06933 80.7602 16.2654 89.4084 25.5592 93.564L27.0251 94.2238C27.647 94.5068 28.3116 94.6463 28.9743 94.6463C29.8629 94.6463 30.7487 94.3947 31.5196 93.8972C32.865 93.0333 33.6767 91.5417 33.6767 89.9429C33.6767 83.785 37.2702 77.8854 41.0745 71.6421C44.3253 66.3073 47.6843 60.7903 49.1331 54.5631C51.3937 44.8392 51.0747 24.9718 23.5275 1.14632ZM39.9713 52.4307C38.8671 57.1892 36.036 61.8318 33.0425 66.7488C29.9151 71.8832 26.709 77.1458 25.1852 83.0065C15.4024 78.156 7.73688 71.9126 9.7221 58.393C10.6373 52.1525 13.2492 47.9362 16.2702 43.0543C20.3821 36.4122 24.925 29.0723 25.5573 16.0777C41.2919 32.869 41.5208 45.7734 39.9713 52.4307Z" fill="#8C82FC"/>
<path d="M54.4271 76.9967C59.7476 69.1156 62.5977 60.7057 63.494 55.4621C65.8694 41.5352 61.2799 25.9411 50.9019 12.6797C49.3012 10.6356 46.3466 10.272 44.3006 11.8737C42.2547 13.4744 41.8939 16.4299 43.4936 18.4749C52.2425 29.6543 56.1531 42.5587 54.2201 53.8795C53.5242 57.96 51.1193 65.0844 46.6314 71.7332C45.1788 73.8864 45.7447 76.8097 47.8989 78.2642C48.705 78.8053 49.6202 79.0674 50.5259 79.0674C52.0345 79.0674 53.5194 78.343 54.4271 76.9967Z" fill="#8C82FC"/>
<path d="M69.2065 65.1813C66.7333 64.3895 64.0854 65.7538 63.2955 68.2289C60.5375 76.8449 54.8742 82.3534 49.7009 86.6039C47.6929 88.2511 47.4033 91.2161 49.0505 93.2232C49.98 94.3549 51.3282 94.9416 52.6877 94.9416C53.7397 94.9416 54.7954 94.5913 55.6698 93.8726C61.541 89.0515 68.7309 82.1056 72.2542 71.0962C73.0441 68.622 71.6817 65.9741 69.2065 65.1813Z" fill="#8C82FC"/>
<path d="M142.06 22.9292L122.781 66.1213H111.279L92 22.9292H104.991L117.071 50.5655L129.069 22.9292H142.06ZM164.07 66.7832C156.043 66.7832 147.852 61.4049 147.852 47.7522V23.0947H160.925V46.8421C160.925 53.3788 163.159 55.4474 167.297 55.4474C173.171 55.4474 176.564 49.7381 177.391 47.2558V23.0947H190.465V66.1213H177.391V58.6744C176.564 60.743 172.178 66.7832 164.07 66.7832ZM220.252 22.35C230.016 22.35 243.669 29.7142 240.938 49.1589H210.902C212.392 53.627 216.281 55.9439 221.493 55.9439C226.789 55.9439 228.444 54.7854 231.423 53.5443L238.621 60.4947C234.815 64.2182 229.685 66.9487 220.997 66.9487C210.323 66.9487 197.581 59.5846 197.581 44.7735C197.581 29.7142 210.489 22.35 220.252 22.35ZM220.252 33.5204C216.529 33.5204 212.723 35.6717 211.068 39.9744H229.354C228.03 35.6717 223.976 33.5204 220.252 33.5204ZM268.823 36.6646C267.664 33.6859 265.927 32.6929 264.024 32.6929C262.286 32.6929 260.548 33.6859 260.548 35.3407C260.548 36.9129 261.541 37.823 263.444 38.485L268.905 40.3881C275.028 42.6222 281.234 44.8562 281.234 53.4615C281.234 62.1496 272.546 67.1142 263.61 67.1142C255.584 67.1142 248.054 62.3978 246.234 54.8682L256.494 51.6412C257.57 54.0407 259.473 56.7713 263.61 56.7713C266.423 56.7713 268.244 54.9509 268.244 53.2961C268.244 52.4686 267.582 51.393 265.513 50.5655L260.466 48.7452C251.86 45.6009 247.806 41.2155 247.806 35.0925C247.806 27.0664 255.253 22.35 263.444 22.35C271.801 22.35 277.345 26.9009 279.828 33.7686L268.823 36.6646ZM308.871 55.1992C311.187 55.1992 312.842 54.8682 314.663 54.3717V65.2111C312.842 66.0386 309.863 66.6178 305.478 66.6178C298.279 66.6178 292.239 64.2182 292.239 50.9792V33.8513H286.199V23.0947H292.239V13H305.313V23.0947H314.497V33.8513H305.313V50.9792C305.313 52.8823 305.809 55.1992 308.871 55.1992ZM356.531 22.9292H369.522L343.209 81.8425H330.136L338.079 64.6319L319.462 22.9292H332.452L344.533 50.5655L356.531 22.9292Z" fill="#8C82FC"/>
</svg>
