<svg width="73" height="95" viewBox="0 0 73 95" fill="none" xmlns="http://www.w3.org/2000/svg">
<path d="M23.5275 1.14632C22.0645 -0.1202 19.9757 -0.359451 18.2649 0.539642C16.5522 1.43968 15.5657 3.29389 15.7755 5.21645C17.7104 22.8565 13.1267 30.2629 8.27234 38.1031C4.99877 43.3923 1.61412 48.859 0.41501 57.0268C-3.06933 80.7602 16.2654 89.4084 25.5592 93.564L27.0251 94.2238C27.647 94.5068 28.3116 94.6463 28.9743 94.6463C29.8629 94.6463 30.7487 94.3947 31.5196 93.8972C32.865 93.0333 33.6767 91.5417 33.6767 89.9429C33.6767 83.785 37.2702 77.8854 41.0745 71.6421C44.3253 66.3073 47.6843 60.7903 49.1331 54.5631C51.3937 44.8392 51.0747 24.9718 23.5275 1.14632ZM39.9713 52.4307C38.8671 57.1892 36.036 61.8318 33.0425 66.7488C29.9151 71.8832 26.709 77.1458 25.1852 83.0065C15.4024 78.156 7.73688 71.9126 9.7221 58.393C10.6373 52.1525 13.2492 47.9362 16.2702 43.0543C20.3821 36.4122 24.925 29.0723 25.5573 16.0777C41.2919 32.869 41.5208 45.7734 39.9713 52.4307Z" fill="#8C82FC"/>
<path d="M54.4271 76.9967C59.7476 69.1156 62.5977 60.7057 63.494 55.4621C65.8694 41.5352 61.2799 25.9411 50.9019 12.6797C49.3012 10.6356 46.3466 10.272 44.3006 11.8737C42.2547 13.4744 41.8939 16.4299 43.4936 18.4749C52.2425 29.6543 56.1531 42.5587 54.2201 53.8795C53.5242 57.96 51.1193 65.0844 46.6314 71.7332C45.1788 73.8864 45.7447 76.8097 47.8989 78.2642C48.705 78.8053 49.6202 79.0674 50.5259 79.0674C52.0345 79.0674 53.5194 78.343 54.4271 76.9967Z" fill="#8C82FC"/>
<path d="M69.2065 65.1813C66.7333 64.3895 64.0854 65.7538 63.2955 68.2289C60.5375 76.8449 54.8742 82.3534 49.7009 86.6039C47.6929 88.2511 47.4033 91.2161 49.0505 93.2232C49.98 94.3549 51.3282 94.9416 52.6877 94.9416C53.7397 94.9416 54.7954 94.5913 55.6698 93.8726C61.541 89.0515 68.7309 82.1056 72.2542 71.0962C73.0441 68.622 71.6817 65.9741 69.2065 65.1813Z" fill="#8C82FC"/>
</svg>
