<svg width="20" height="21" viewBox="0 0 20 21" fill="none" xmlns="http://www.w3.org/2000/svg">
<rect y="0.5" width="20" height="20" rx="10" fill="white"/>
<path fill-rule="evenodd" clip-rule="evenodd" d="M12.6567 6.04349C12.6492 6.04872 12.6363 6.0584 12.6169 6.07487C12.555 6.12737 12.4762 6.20555 12.3376 6.34417L12.3346 6.34714L10.8483 7.83347L12.6664 9.65161L14.1601 8.15792C14.2958 8.02217 14.3729 7.94439 14.4248 7.88322C14.4413 7.86375 14.451 7.85077 14.4562 7.84331C14.4572 7.8368 14.4572 7.83019 14.4562 7.8237C14.451 7.81623 14.4413 7.80318 14.4246 7.7836C14.372 7.72157 14.2935 7.64248 14.1545 7.50348L12.9947 6.34361C12.8562 6.20517 12.7775 6.12713 12.7158 6.07473C12.6965 6.05835 12.6836 6.04871 12.6762 6.04349C12.6697 6.04253 12.6631 6.04254 12.6567 6.04349ZM11.8179 10.5001L9.99974 8.682L5.26641 13.4153V15.2335L7.08454 15.2335L11.8179 10.5001ZM8.78159 15.2335L14.9981 9.01692L15.0177 8.99737C15.1374 8.87768 15.2514 8.76372 15.3396 8.6598C15.4358 8.54647 15.536 8.4063 15.595 8.22494C15.6776 7.97058 15.6777 7.69654 15.595 7.4421C15.536 7.26064 15.4357 7.12037 15.3394 7.00697C15.2511 6.90295 15.137 6.78885 15.0171 6.66897L15.0031 6.65495L13.8292 5.48109C13.7099 5.36172 13.5961 5.24795 13.4924 5.15987C13.3792 5.06381 13.2391 4.96366 13.0579 4.90477C12.8035 4.82211 12.5294 4.82211 12.275 4.90477C12.0937 4.96369 11.9535 5.06391 11.8403 5.16004C11.7364 5.24819 11.6226 5.36208 11.5031 5.48162L11.4909 5.49382L9.57548 7.40921L4.24214 12.7425C4.12962 12.8551 4.06641 13.0077 4.06641 13.1668V15.8335C4.06641 16.1648 4.33504 16.4335 4.66641 16.4335H15.3331C15.6644 16.4335 15.9331 16.1648 15.9331 15.8335C15.9331 15.5021 15.6644 15.2335 15.3331 15.2335H8.78159Z" fill="#6F767B"/>
</svg>
